<svg height="1326" width="720" xmlns="http://www.w3.org/2000/svg">
<rect height="1326" fill="#555" width="720"></rect>
<text fill="#7f7" font-family="Courier New" font-size="12" xml:space="preserve">
<tspan x="10" y="26">└─┬ alexa-app@4.0.0 </tspan>
<tspan x="10" y="42">  ├─┬ alexa-utterances@0.2.1 </tspan>
<tspan x="10" y="58">  │ └── js-combinatorics@0.5.2 </tspan>
<tspan x="10" y="74">  ├─┬ alexa-verifier-middleware@0.2.2 </tspan>
<tspan x="10" y="90">  │ └─┬ alexa-verifier@0.3.5 </tspan>
<tspan x="10" y="106">  │   ├── node-forge@0.7.1 </tspan>
<tspan x="10" y="122">  │   ├─┬ request@2.81.0 </tspan>
<tspan x="10" y="138">  │   │ ├── aws-sign2@0.6.0 </tspan>
<tspan x="10" y="154">  │   │ ├── aws4@1.6.0 </tspan>
<tspan x="10" y="170">  │   │ ├── caseless@0.12.0 </tspan>
<tspan x="10" y="186">  │   │ ├─┬ combined-stream@1.0.5 </tspan>
<tspan x="10" y="202">  │   │ │ └── delayed-stream@1.0.0 </tspan>
<tspan x="10" y="218">  │   │ ├── extend@3.0.0 </tspan>
<tspan x="10" y="234">  │   │ ├── forever-agent@0.6.1 </tspan>
<tspan x="10" y="250">  │   │ ├─┬ form-data@2.1.2 </tspan>
<tspan x="10" y="266">  │   │ │ └── asynckit@0.4.0 </tspan>
<tspan x="10" y="282">  │   │ ├─┬ har-validator@4.2.1 </tspan>
<tspan x="10" y="298">  │   │ │ ├─┬ ajv@4.11.5 </tspan>
<tspan x="10" y="314">  │   │ │ │ ├── co@4.6.0 </tspan>
<tspan x="10" y="330">  │   │ │ │ └─┬ json-stable-stringify@1.0.1 </tspan>
<tspan x="10" y="346">  │   │ │ │   └── jsonify@0.0.0 </tspan>
<tspan x="10" y="362">  │   │ │ └── har-schema@1.0.5 </tspan>
<tspan x="10" y="378">  │   │ ├─┬ hawk@3.1.3 </tspan>
<tspan x="10" y="394">  │   │ │ ├── boom@2.10.1 </tspan>
<tspan x="10" y="410">  │   │ │ ├── cryptiles@2.0.5 </tspan>
<tspan x="10" y="426">  │   │ │ ├── hoek@2.16.3 </tspan>
<tspan x="10" y="442">  │   │ │ └── sntp@1.0.9 </tspan>
<tspan x="10" y="458">  │   │ ├─┬ http-signature@1.1.1 </tspan>
<tspan x="10" y="474">  │   │ │ ├── assert-plus@0.2.0 </tspan>
<tspan x="10" y="490">  │   │ │ ├─┬ jsprim@1.4.0 </tspan>
<tspan x="10" y="506">  │   │ │ │ ├── assert-plus@1.0.0 </tspan>
<tspan x="10" y="522">  │   │ │ │ ├── extsprintf@1.0.2 </tspan>
<tspan x="10" y="538">  │   │ │ │ ├── json-schema@0.2.3 </tspan>
<tspan x="10" y="554">  │   │ │ │ └── verror@1.3.6 </tspan>
<tspan x="10" y="570">  │   │ │ └─┬ sshpk@1.11.0 </tspan>
<tspan x="10" y="586">  │   │ │   ├── asn1@0.2.3 </tspan>
<tspan x="10" y="602">  │   │ │   ├── assert-plus@1.0.0 </tspan>
<tspan x="10" y="618">  │   │ │   ├── bcrypt-pbkdf@1.0.1 </tspan>
<tspan x="10" y="634">  │   │ │   ├─┬ dashdash@1.14.1 </tspan>
<tspan x="10" y="650">  │   │ │   │ └── assert-plus@1.0.0 </tspan>
<tspan x="10" y="666">  │   │ │   ├── ecc-jsbn@0.1.1 </tspan>
<tspan x="10" y="682">  │   │ │   ├─┬ getpass@0.1.6 </tspan>
<tspan x="10" y="698">  │   │ │   │ └── assert-plus@1.0.0 </tspan>
<tspan x="10" y="714">  │   │ │   ├── jodid25519@1.0.2 </tspan>
<tspan x="10" y="730">  │   │ │   ├── jsbn@0.1.1 </tspan>
<tspan x="10" y="746">  │   │ │   └── tweetnacl@0.14.5 </tspan>
<tspan x="10" y="762">  │   │ ├── is-typedarray@1.0.0 </tspan>
<tspan x="10" y="778">  │   │ ├── isstream@0.1.2 </tspan>
<tspan x="10" y="794">  │   │ ├── json-stringify-safe@5.0.1 </tspan>
<tspan x="10" y="810">  │   │ ├── oauth-sign@0.8.2 </tspan>
<tspan x="10" y="826">  │   │ ├── performance-now@0.2.0 </tspan>
<tspan x="10" y="842">  │   │ ├── safe-buffer@5.0.1 </tspan>
<tspan x="10" y="858">  │   │ ├── stringstream@0.0.5 </tspan>
<tspan x="10" y="874">  │   │ ├─┬ tough-cookie@2.3.2 </tspan>
<tspan x="10" y="890">  │   │ │ └── punycode@1.4.1 </tspan>
<tspan x="10" y="906">  │   │ ├── tunnel-agent@0.6.0 </tspan>
<tspan x="10" y="922">  │   │ └── uuid@3.0.1 </tspan>
<tspan x="10" y="938">  │   └── validator@7.0.0 </tspan>
<tspan x="10" y="954">  ├── bluebird@2.11.0 </tspan>
<tspan x="10" y="970">  ├─┬ body-parser@1.17.1 </tspan>
<tspan x="10" y="986">  │ ├── bytes@2.4.0 </tspan>
<tspan x="10" y="1002">  │ ├── content-type@1.0.2 </tspan>
<tspan x="10" y="1018">  │ ├─┬ debug@2.6.1 </tspan>
<tspan x="10" y="1034">  │ │ └── ms@0.7.2 </tspan>
<tspan x="10" y="1050">  │ ├── depd@1.1.0 </tspan>
<tspan x="10" y="1066">  │ ├─┬ http-errors@1.6.1 </tspan>
<tspan x="10" y="1082">  │ │ ├── inherits@2.0.3 </tspan>
<tspan x="10" y="1098">  │ │ ├── setprototypeof@1.0.3 </tspan>
<tspan x="10" y="1114">  │ │ └── statuses@1.3.1 </tspan>
<tspan x="10" y="1130">  │ ├── iconv-lite@0.4.15 </tspan>
<tspan x="10" y="1146">  │ ├─┬ on-finished@2.3.0 </tspan>
<tspan x="10" y="1162">  │ │ └── ee-first@1.1.1 </tspan>
<tspan x="10" y="1178">  │ ├── qs@6.4.0 </tspan>
<tspan x="10" y="1194">  │ ├─┬ raw-body@2.2.0 </tspan>
<tspan x="10" y="1210">  │ │ └── unpipe@1.0.0 </tspan>
<tspan x="10" y="1226">  │ └─┬ type-is@1.6.15 </tspan>
<tspan x="10" y="1242">  │   ├── media-typer@0.3.0 </tspan>
<tspan x="10" y="1258">  │   └─┬ mime-types@2.1.15 </tspan>
<tspan x="10" y="1274">  │     └── mime-db@1.27.0 </tspan>
<tspan x="10" y="1290">  ├── lodash.defaults@4.2.0 </tspan>
<tspan x="10" y="1306">  └── numbered@1.0.0</tspan>
</text>
</svg>
